<svg width="32" height="32" viewBox="0 0 32 32" fill="none" xmlns="http://www.w3.org/2000/svg">
<path fill-rule="evenodd" clip-rule="evenodd" d="M0 16C0 7.16344 7.16344 0 16 0C24.8366 0 32 7.16344 32 16C32 24.8366 24.8366 32 16 32C7.16344 32 0 24.8366 0 16Z" fill="#E5F4F2"/>
<path fill-rule="evenodd" clip-rule="evenodd" d="M18.3722 12.4464H22.8917V11.1515H18.3722V12.4464ZM19.4429 15.2717C19.1549 15.5647 18.9733 15.9617 18.899 16.4626H22.4141C22.377 15.928 22.1944 15.5241 21.8712 15.246C21.5441 14.9698 21.1417 14.8322 20.6601 14.8322C20.1383 14.8322 19.7309 14.9787 19.4429 15.2717ZM22.4933 13.5334C23.0382 13.7729 23.4868 14.1531 23.84 14.6718C24.1621 15.1292 24.3688 15.6598 24.4631 16.2627C24.5183 16.6151 24.5404 17.1259 24.5314 17.7901H18.8488C18.8829 18.5613 19.1518 19.1028 19.6656 19.4127C19.9767 19.6057 20.351 19.7027 20.7905 19.7027C21.2531 19.7027 21.6314 19.5849 21.9214 19.3503C22.0809 19.2226 22.2214 19.0464 22.3418 18.8207H24.424C24.3688 19.2761 24.1159 19.7403 23.6684 20.2116C22.97 20.959 21.9916 21.3332 20.7343 21.3332C19.6957 21.3332 18.7796 21.0184 17.9878 20.3868C17.1921 19.7562 16.7967 18.7286 16.7967 17.3071C16.7967 15.9736 17.155 14.951 17.8704 14.2392C18.5879 13.5294 19.5161 13.172 20.659 13.172C21.3384 13.172 21.9495 13.2928 22.4933 13.5334ZM9.56888 16.4903V19.2652H12.1297C12.5873 19.2652 12.9445 19.2038 13.1984 19.082C13.661 18.8543 13.8918 18.4227 13.8918 17.7832C13.8918 17.2407 13.669 16.8695 13.2204 16.6666C12.9696 16.5537 12.6174 16.4943 12.1658 16.4903H9.56888ZM9.56888 12.4731V14.7688H12.1337C12.5903 14.7688 12.9626 14.6827 13.2495 14.5104C13.5345 14.3382 13.678 14.0333 13.678 13.5977C13.678 13.1116 13.4894 12.7919 13.1121 12.6355C12.7849 12.5276 12.3695 12.4731 11.8648 12.4731H9.56888ZM15.2966 11.7752C15.6187 12.2177 15.7803 12.7464 15.7803 13.3631C15.7803 13.9977 15.6187 14.5095 15.2926 14.8956C15.11 15.1114 14.842 15.3093 14.4878 15.4875C15.0257 15.6816 15.4311 15.9875 15.707 16.4062C15.98 16.824 16.1174 17.3328 16.1174 17.9307C16.1174 18.5475 15.9609 19.1008 15.6468 19.5899C15.4481 19.9136 15.1993 20.1868 14.9002 20.4086C14.5641 20.663 14.1677 20.8362 13.7091 20.9313C13.2506 21.0253 12.7549 21.0708 12.219 21.0708H7.46667V10.6665H12.5632C13.8496 10.6853 14.7598 11.0546 15.2966 11.7752Z" fill="#2D2D2D"/>
</svg>
